<svg width="166" height="34" viewBox="0 0 166 34" fill="none" xmlns="http://www.w3.org/2000/svg">
<path d="M44.4756 15.2009C44.4756 14.3585 44.4678 13.5708 44.4522 12.8377C44.4522 12.0889 44.4367 11.4182 44.4055 10.8254C44.39 10.2326 44.3667 9.73347 44.3355 9.3279C44.3044 8.90673 44.2733 8.22135 44.2422 8.04976C44.3333 8.04977 44.4802 8.04976 44.698 8.04976C44.9314 8.04976 45.1049 8.04976 45.245 8.04976C45.5095 8.04976 45.7854 8.04978 46.0654 8.04978C46.3455 8.03419 46.6124 8.04977 46.7035 8.04976C46.6569 8.48653 46.5759 9.67107 46.5292 10.8722C46.4981 12.0577 46.4826 13.4772 46.4826 15.1307V19.1552C46.4826 20.3407 46.4826 21.2845 46.4826 21.9864C46.4981 22.6884 46.5059 23.2265 46.5059 23.6009C46.5215 23.9753 46.537 24.2249 46.5526 24.3496C46.5837 24.4744 46.6148 24.5446 46.6459 24.5602C46.7548 24.6382 46.9415 24.6928 47.206 24.724C47.4394 24.7552 47.7506 24.7786 48.1395 24.7942C48.544 24.7942 48.9952 24.7942 49.4931 24.7942C50.1465 24.7942 50.6989 24.7864 51.15 24.7708C51.6168 24.7396 52.0057 24.7006 52.3169 24.6538C52.6281 24.607 52.8848 24.5602 53.087 24.5134C53.2893 24.451 53.4604 24.3886 53.6005 24.3262C53.5538 24.4354 53.4993 24.5758 53.4371 24.7474C53.3904 24.9034 53.3438 25.075 53.2971 25.2622C53.2504 25.4338 53.2037 25.5976 53.1571 25.7535C53.1104 25.9095 53.1004 26.0767 53.0849 26.1703C52.9937 26.1703 52.8914 26.1703 52.7202 26.1703C52.5379 26.1703 52.1924 26.1747 51.6635 26.1747C50.8078 26.1747 50.0918 26.1703 49.4384 26.1703C48.8003 26.1703 48.2027 26.1703 47.7063 26.1703C47.2505 26.1703 46.7871 26.1703 46.4301 26.1703C46.0654 26.1703 45.7073 26.1703 45.4273 26.1703C45.1628 26.1703 44.9759 26.1703 44.7892 26.1703C44.6025 26.1703 44.5157 26.1703 44.3333 26.1703C44.3489 25.9675 44.3433 25.5664 44.3589 25.1452C44.39 24.724 44.4133 24.2249 44.4289 23.6477C44.4444 23.0549 44.4522 22.392 44.4522 21.6588C44.4678 20.9257 44.4756 20.1457 44.4756 19.319V15.2009Z" fill="#F4F4F4"/>
<path d="M60.8934 8.04285C60.9848 8.04286 61.1787 8.04285 61.3503 8.04285C61.5374 8.04285 61.6356 8.04285 61.8071 8.04285C62.1346 8.04285 62.4713 8.04288 62.7208 8.04288C62.9949 8.04285 63.1776 8.04286 63.326 8.04285C63.2948 8.23088 63.2714 8.53641 63.2558 8.95946C63.2402 9.36685 63.2168 9.87607 63.1856 10.4871C63.17 11.0826 63.1545 11.7563 63.1389 12.5084C63.1389 13.2448 63.1389 14.0282 63.1389 14.8587V18.1256C63.1389 18.909 63.1778 19.5827 63.2558 20.1468C63.3338 20.6952 63.4429 21.1731 63.5833 21.5805C63.7392 21.9722 63.9185 22.3091 64.1213 22.5911C64.324 22.8731 64.5501 23.1317 64.7996 23.3667C65.0802 23.633 65.3765 23.8446 65.6884 24.0013C66.0003 24.1579 66.3121 24.2833 66.624 24.3773C66.9359 24.4556 67.2477 24.5105 67.5596 24.5418C67.8715 24.5732 68.1677 24.5888 68.4484 24.5888C68.9786 24.5888 69.5634 24.5026 70.2027 24.3303C70.842 24.1579 71.3878 23.8211 71.84 23.3197C72.4325 22.6929 72.8224 21.9252 73.0095 21.0164C73.2122 20.1076 73.3136 18.9795 73.3136 17.632V14.8587C73.3136 14.0126 73.3058 13.2291 73.2902 12.5084C73.2746 11.772 73.2512 11.1139 73.22 10.5342C73.2044 9.93875 73.181 9.43735 73.1498 9.02997C73.1187 8.60692 73.0765 8.26221 73.0453 8.04285C73.1367 8.04285 73.315 8.04285 73.5022 8.04285C73.6893 8.04285 73.8342 8.04285 73.959 8.04285C74.2085 8.04285 74.5072 8.04285 74.6899 8.04286C74.8727 8.04285 75.0554 8.04284 75.1146 8.04285C75.0834 8.23088 75.0522 8.53641 75.021 8.95946C75.0055 9.36685 74.9899 9.87607 74.9743 10.4871C74.9587 11.0826 74.9431 11.7563 74.9275 12.5084C74.9119 13.2448 74.9041 14.0282 74.9041 14.8587V17.585C74.9041 18.2744 74.8807 18.9482 74.8339 19.6062C74.7871 20.2643 74.6858 20.8989 74.5299 21.51C74.3739 22.1054 74.1478 22.6694 73.8515 23.2022C73.5553 23.7349 73.1654 24.2206 72.682 24.6593C72.3234 24.9727 71.9491 25.2312 71.5593 25.4349C71.1695 25.6229 70.764 25.764 70.343 25.858C69.9376 25.9677 69.5322 26.0382 69.1267 26.0695C68.7213 26.1165 68.3237 26.14 67.9338 26.14C67.123 26.14 66.2731 26.0225 65.3843 25.7875C64.5111 25.5681 63.7548 25.1607 63.1155 24.5653C62.8192 24.2833 62.5463 23.9699 62.2968 23.6252C62.0629 23.2805 61.8524 22.8731 61.6653 22.4031C61.4938 21.933 61.3612 21.3846 61.2677 20.7579C61.1741 20.1311 61.1273 19.3947 61.1273 18.5486V14.8587C61.1273 14.0126 61.1195 13.2135 61.1039 12.4614C61.1039 11.7093 61.0883 11.0355 61.0571 10.4401C61.0415 9.82907 61.0182 9.31984 60.987 8.91246C60.9558 8.48941 60.9246 8.18387 60.8934 8.04285Z" fill="#F4F4F4"/>
<path d="M84.5042 26.14C84.3219 26.14 84.205 26.14 84.0484 26.14C83.8919 26.14 83.7648 26.14 83.5926 26.14C83.53 26.14 83.4287 26.14 83.3191 26.14C83.228 26.14 83.0797 26.14 82.9545 26.14C82.8633 26.14 82.6994 26.14 82.5899 26.14C82.4987 26.14 82.4545 26.14 82.4075 26.14C82.4388 25.811 82.4623 25.2704 82.478 24.5183C82.5093 23.7662 82.5327 22.8888 82.5484 21.886C82.5797 20.8675 82.5954 19.7864 82.5954 18.6426C82.611 17.4831 82.6188 16.3393 82.6188 15.2112C82.6345 14.0674 82.6423 12.9941 82.6423 11.9913C82.658 10.9885 82.6658 10.1346 82.6658 9.42951C82.6658 9.11614 82.6658 8.86544 82.6658 8.67742C82.6814 8.4894 82.6971 8.34838 82.7127 8.25437C82.7284 8.16036 82.744 8.10552 82.7597 8.08985C82.791 8.05852 82.8223 8.04285 82.8536 8.04285C82.9006 8.04285 82.9788 8.09769 83.0884 8.20737C83.1979 8.30138 83.3701 8.4659 83.6049 8.70093C83.9805 9.09264 84.497 9.66454 85.1544 10.4166C85.8274 11.1531 86.563 11.9757 87.3612 12.8844C88.1751 13.7932 89.0202 14.7411 89.8967 15.7283C90.7732 16.7154 91.6027 17.6555 92.3853 18.5486C93.1679 19.426 93.8722 20.2016 94.4982 20.8754C95.1243 21.5491 95.5938 22.027 95.9069 22.3091C95.8912 21.6823 95.8756 20.9616 95.8599 20.1468C95.8599 19.3164 95.8521 18.4546 95.8364 17.5615C95.8364 16.6684 95.8286 15.7674 95.813 14.8587C95.7973 13.9499 95.7817 13.0881 95.766 12.2734C95.7504 11.4429 95.7269 10.6987 95.6956 10.0406C95.6799 9.36684 95.6447 8.4659 95.6134 8.04285C95.7051 8.04285 95.8998 8.04285 96.0719 8.04285C96.2441 8.04285 96.374 8.04285 96.5305 8.04285C96.7496 8.04285 96.989 8.04285 97.2641 8.04285C97.5393 8.04285 97.631 8.04285 97.7227 8.04285C97.6914 8.40322 97.652 9.31983 97.6207 10.1346C97.5894 10.9494 97.5581 11.8973 97.5268 12.9784C97.5111 14.0596 97.4955 15.2269 97.4798 16.4804C97.4642 17.7182 97.4564 18.9325 97.4564 20.1233C97.4564 21.1261 97.4564 21.933 97.4564 22.5441C97.472 23.1552 97.4798 23.7271 97.4798 24.2598C97.4798 24.7612 97.472 25.1607 97.4564 25.4584C97.4564 25.7561 97.4476 25.67 97.4476 25.7618C97.4319 25.9184 97.3829 26.0237 97.358 26.0486C97.2669 26.14 97.2669 26.14 97.1757 26.14C97.0974 26.14 96.8056 26.0067 96.5376 25.7744C96.1729 25.4584 96.0555 25.3801 95.4138 24.7063C95.0852 24.3773 94.6391 23.8994 94.0757 23.2727C93.5279 22.6459 92.9096 21.9408 92.221 21.1574C91.5479 20.374 90.8358 19.5436 90.0845 18.6661C89.3333 17.7887 88.5898 16.9347 87.8542 16.1043C87.1343 15.2739 86.4612 14.5061 85.8352 13.801C85.2091 13.0803 84.677 12.4849 84.2388 12.0148C84.2544 13.284 84.2701 14.6471 84.2857 16.1043C84.3014 17.5458 84.317 18.9325 84.3327 20.2643C84.364 21.5961 84.3953 22.7869 84.4266 23.8367C84.4579 24.8865 84.4573 25.67 84.5042 26.14Z" fill="#F4F4F4"/>
<path d="M128.268 14.9722C128.268 14.1149 128.26 13.3133 128.245 12.5672C128.245 11.821 128.229 11.1543 128.198 10.5669C128.183 9.96371 128.159 9.44778 128.128 9.01916C128.097 8.59054 128.05 8.23338 127.988 8.04288C128.17 8.04288 128.379 8.04288 128.535 8.04288C128.705 8.04288 128.91 8.04287 129.081 8.04287C129.19 8.04287 129.363 8.04285 129.627 8.04285C129.9 8.04288 130.173 8.04288 130.446 8.04285C130.72 8.04288 131.062 8.04288 131.357 8.04288C131.63 8.04289 131.935 8.04287 132.137 8.04287C132.929 8.04287 133.683 8.10637 134.398 8.23336C135.112 8.36036 135.718 8.58261 136.216 8.9001C136.822 9.29697 137.319 9.83671 137.707 10.5193C138.096 11.1861 138.29 11.948 138.29 12.8053C138.29 14.8531 137.342 16.5438 135.446 17.8772C136.192 18.8932 136.977 19.9568 137.8 21.068C138.624 22.1793 139.44 23.1794 140.248 24.0684C140.745 24.624 141.172 25.0605 141.529 25.378C141.887 25.6955 142.174 25.9019 142.392 25.9971C142.236 26.0606 142.011 26.1003 141.716 26.1162C141.436 26.1321 141.157 26.14 140.877 26.14C140.613 26.14 140.372 26.1162 140.154 26.0686C139.952 26.0368 139.75 25.9733 139.548 25.8781C139.362 25.767 139.168 25.6241 138.966 25.4495C138.764 25.2748 138.546 25.0605 138.313 24.8065C137.987 24.4732 137.622 24.0446 137.218 23.5207C136.814 22.9809 136.402 22.4174 135.982 21.83C135.563 21.2427 135.159 20.6712 134.771 20.1156C134.382 19.56 134.056 19.0996 133.792 18.7345C133.698 18.6233 133.597 18.5678 133.489 18.5678C133.364 18.5678 133.178 18.5678 132.929 18.5678C132.681 18.5678 132.401 18.5678 132.09 18.5678C131.795 18.5678 131.484 18.5678 131.158 18.5678C130.832 18.5519 130.544 18.544 130.296 18.544C130.249 18.544 130.226 18.5916 130.226 18.6868V19.425C130.226 20.1711 130.226 20.8934 130.226 21.5919C130.241 22.2745 130.257 22.9016 130.272 23.4731C130.303 24.0446 130.327 24.5525 130.342 24.997C130.373 25.4415 130.419 25.8861 130.45 26.1401C130.358 26.1401 130.18 26.1401 129.994 26.1401C129.807 26.1401 129.649 26.1401 129.447 26.1401C129.229 26.1401 128.922 26.1401 128.626 26.1401C128.353 26.14 128.079 26.14 127.988 26.1401C128.019 25.9337 128.097 25.5368 128.128 25.0923C128.159 24.6319 128.183 24.0922 128.198 23.4731C128.229 22.854 128.245 22.1793 128.245 21.449C128.26 20.7029 128.268 19.9409 128.268 19.1631V14.9722ZM130.226 16.9248C130.226 17.0518 130.249 17.1232 130.296 17.1391C130.529 17.1867 130.909 17.2264 131.438 17.2581C131.966 17.2899 132.541 17.3057 133.162 17.3057C133.504 17.3057 133.776 17.2899 133.978 17.2581C134.18 17.2105 134.359 17.1311 134.514 17.02C134.98 16.6708 135.392 16.1945 135.749 15.5913C136.107 14.9722 136.285 14.234 136.285 13.3768C136.285 12.1068 135.913 11.1146 135.167 10.4003C134.421 9.67002 133.372 9.30491 132.02 9.30491C131.663 9.30491 131.329 9.31284 131.018 9.32872C130.723 9.34459 130.49 9.3684 130.319 9.40015C130.257 9.41603 130.226 9.47159 130.226 9.56684V16.9248Z" fill="#F4F4F4"/>
<path d="M109.392 19.8883C109.329 19.8883 109.29 19.9118 109.275 19.9588C109.088 20.4758 108.885 21.0321 108.666 21.6275C108.464 22.2229 108.261 22.8104 108.058 23.3902C107.871 23.9699 107.691 24.5026 107.52 24.9884C107.364 25.4584 107.266 25.858 107.203 26.14C107.112 26.14 106.964 26.14 106.839 26.14C106.714 26.14 106.541 26.14 106.292 26.14C106.058 26.14 105.836 26.14 105.563 26.14C105.289 26.14 105.107 26.14 105.016 26.14C105.312 25.5133 105.671 24.7142 106.092 23.7427C106.513 22.7556 106.958 21.6901 107.426 20.5463L112.06 9.00646C112.2 8.66175 112.302 8.41889 112.364 8.27787C112.442 8.12119 112.52 8.04285 112.598 8.04285C112.66 8.04285 112.723 8.10552 112.785 8.23087C112.863 8.35622 112.988 8.61475 113.16 9.00646C113.222 9.14748 113.402 9.5627 113.698 10.2521C113.994 10.9259 114.353 11.7641 114.775 12.7669C115.211 13.754 115.687 14.8508 116.202 16.0573C116.717 17.2481 117.224 18.4389 117.723 19.6297C117.988 20.2565 118.261 20.9067 118.542 21.5805C118.823 22.2385 119.096 22.8731 119.361 23.4842C119.642 24.0796 119.892 24.6123 120.11 25.0824C120.344 25.5368 120.539 25.905 120.695 26.14C120.513 26.14 120.24 26.14 120.057 26.14C119.87 26.14 119.726 26.14 119.601 26.14C119.305 26.14 118.986 26.14 118.69 26.14C118.416 26.14 118.234 26.14 118.098 26.14C118.004 25.8736 117.856 25.4898 117.653 24.9884C117.466 24.487 117.255 23.9464 117.021 23.3667C116.787 22.7713 116.545 22.1759 116.296 21.5805C116.062 20.9694 115.843 20.4288 115.64 19.9588C115.609 19.9118 115.578 19.8883 115.547 19.8883H109.392ZM115.055 18.5251C115.102 18.5251 115.118 18.4938 115.102 18.4311L112.341 11.5918L109.79 18.4311C109.774 18.4938 109.79 18.5251 109.837 18.5251H115.055Z" fill="#F4F4F4"/>
<path d="M154.061 19.8883C153.999 19.8883 153.96 19.9118 153.944 19.9588C153.757 20.4758 153.554 21.0321 153.336 21.6275C153.133 22.2229 152.93 22.8104 152.727 23.3902C152.54 23.9699 152.36 24.5026 152.189 24.9884C152.033 25.4584 151.935 25.858 151.873 26.14C151.781 26.14 151.633 26.14 151.508 26.14C151.383 26.14 151.211 26.14 150.961 26.14C150.727 26.14 150.505 26.14 150.232 26.14C149.958 26.14 149.776 26.14 149.685 26.14C149.981 25.5133 150.34 24.7142 150.761 23.7427C151.183 22.7556 151.627 21.6901 152.095 20.5463L156.729 9.00646C156.869 8.66175 156.971 8.41889 157.033 8.27787C157.111 8.12119 157.189 8.04285 157.267 8.04285C157.33 8.04285 157.392 8.10552 157.454 8.23087C157.532 8.35622 157.657 8.61475 157.829 9.00646C157.891 9.14748 158.071 9.5627 158.367 10.2521C158.664 10.9259 159.022 11.7641 159.444 12.7669C159.881 13.754 160.356 14.8508 160.871 16.0573C161.386 17.2481 161.893 18.4389 162.392 19.6297C162.658 20.2565 162.931 20.9067 163.211 21.5805C163.492 22.2385 163.765 22.8731 164.031 23.4842C164.311 24.0796 164.561 24.6123 164.779 25.0824C165.013 25.5368 165.209 25.905 165.365 26.14C165.182 26.14 164.909 26.14 164.726 26.14C164.539 26.14 164.395 26.14 164.271 26.14C163.974 26.14 163.655 26.14 163.359 26.14C163.085 26.14 162.903 26.14 162.767 26.14C162.673 25.8736 162.525 25.4898 162.322 24.9884C162.135 24.487 161.924 23.9464 161.69 23.3667C161.456 22.7713 161.214 22.1759 160.965 21.5805C160.731 20.9694 160.512 20.4288 160.31 19.9588C160.278 19.9118 160.247 19.8883 160.216 19.8883H154.061ZM159.724 18.5251C159.771 18.5251 159.787 18.4938 159.771 18.4311L157.01 11.5918L154.459 18.4311C154.443 18.4938 154.459 18.5251 154.506 18.5251H159.724Z" fill="#F4F4F4"/>
<g clip-path="url(#clip0_10_9033)">
<path d="M22.078 2.77665C21.6583 3.21672 21.3086 3.71863 21.0412 4.26483C18.2532 3.23749 15.2061 3.14733 12.3622 4.00801C9.51832 4.8687 7.03264 6.63329 5.28213 9.03419C3.53162 11.4351 2.61176 14.3413 2.66205 17.3122C2.71234 20.2831 3.73004 23.1565 5.56082 25.4968L4.30813 26.7495C2.17049 24.0913 0.974487 20.7994 0.907291 17.389C0.840095 13.9786 1.9055 10.6421 3.93677 7.90182C5.96803 5.1615 8.85052 3.17196 12.1331 2.24458C15.4157 1.3172 18.9131 1.50432 22.078 2.77665Z" fill="#F4F4F4"/>
<path d="M31.7467 17.0893C31.7485 19.9984 30.9273 22.8487 29.3777 25.3107C27.8282 27.7728 25.6137 29.7462 22.9901 31.003C20.3665 32.2597 17.4408 32.7485 14.5512 32.4128C11.6615 32.0771 8.92582 30.9307 6.66016 29.106L7.91285 27.8533C10.2671 29.6932 13.1596 30.7104 16.1472 30.7491C19.1349 30.7878 22.0528 29.846 24.4539 28.0678C26.8551 26.2896 28.607 23.7732 29.4412 20.9042C30.2755 18.0352 30.1461 14.9717 29.0728 12.1833C29.6147 11.9073 30.1111 11.5499 30.5447 11.1235C31.3406 13.0116 31.7493 15.0403 31.7467 17.0893Z" fill="#F4F4F4"/>
<path d="M14.7379 20.2963L1.87086 33.1634L1.66153 33.3711L0.207691 31.9172L0 31.7095L13.0829 18.6266C13.4327 19.3524 14.0153 19.9402 14.7379 20.2963Z" fill="#F4F4F4"/>
<path d="M23.1596 11.8742L19.5242 15.5096C19.1678 14.7867 18.5777 14.2053 17.8496 13.8596L21.4752 10.2339C21.9213 10.8879 22.4941 11.4456 23.1596 11.8742Z" fill="#F4F4F4"/>
<path d="M32.6374 2.39725L31.3815 3.65321C30.954 2.9879 30.398 2.41467 29.7461 1.96715L30.9743 0.735718L31.1819 0.943409L32.4297 2.18956L32.6374 2.39725Z" fill="#F4F4F4"/>
<path d="M16.3167 20.1737C16.9272 20.174 17.5241 19.9933 18.0318 19.6543C18.5395 19.3153 18.9353 18.8334 19.1691 18.2695C19.4028 17.7055 19.4641 17.0849 19.3451 16.4861C19.2261 15.8874 18.9321 15.3374 18.5004 14.9057C18.0688 14.474 17.5188 14.1801 16.92 14.061C16.3212 13.942 15.7006 14.0033 15.1367 14.237C14.5727 14.4708 14.0908 14.8666 13.7518 15.3743C13.4129 15.8821 13.2321 16.4789 13.2324 17.0894C13.2324 17.9074 13.5574 18.6919 14.1358 19.2703C14.7142 19.8488 15.4987 20.1737 16.3167 20.1737Z" fill="url(#paint0_linear_10_9033)"/>
<path d="M28.0242 7.04661C28.5442 7.64612 29.0166 8.28531 29.4371 8.95835V8.96817C29.0952 9.46383 28.6385 9.86948 28.1059 10.1505C27.7178 9.49639 27.2747 8.87652 26.7813 8.29767L24.8368 10.2339L24.8123 10.2225C24.0942 9.88212 23.503 9.32193 23.1246 8.6231L25.1067 6.64104C24.4725 6.11072 23.7915 5.6389 23.0723 5.23135V5.21991C23.3421 4.68182 23.7396 4.21803 24.2301 3.86909C24.9811 4.31474 25.6924 4.82412 26.3561 5.39162L28.1288 3.61725C28.8287 3.99431 29.3893 4.58582 29.7282 5.30495L29.7397 5.32948L28.0242 7.04661Z" fill="#F4F4F4"/>
<path d="M31.0383 4.03099C31.0346 4.02302 31.0302 4.01536 31.0252 4.00809C30.6137 3.34088 30.0632 2.77025 29.4111 2.33511L29.3882 2.3204C28.3462 1.6302 27.0985 1.31932 25.8545 1.43991C24.6105 1.56051 23.4457 2.10523 22.5557 2.98272L22.5426 2.9958C22.1148 3.4179 21.76 3.90809 21.4927 4.44637C21.4927 4.44637 21.4927 4.45782 21.4845 4.46272C21.063 5.31719 20.8727 6.26721 20.9327 7.2181C20.9927 8.169 21.3008 9.08759 21.8263 9.88233L21.841 9.90522C22.2771 10.5565 22.8475 11.1069 23.514 11.5193L23.5369 11.5324C24.3358 12.0224 25.2477 12.2978 26.1843 12.3319C27.1209 12.366 28.0505 12.1576 28.8829 11.727H28.8993C29.4317 11.4488 29.9151 11.0853 30.3302 10.6509L30.3417 10.6379C31.1685 9.76837 31.6851 8.65012 31.811 7.45687C31.937 6.26362 31.6654 5.06216 31.0383 4.03917V4.03099ZM29.4357 8.96816C29.0937 9.46382 28.637 9.86947 28.1045 10.1505H28.0947C27.5946 10.4105 27.0417 10.5528 26.4782 10.5664C25.9147 10.58 25.3556 10.4646 24.8436 10.229L24.819 10.2176C24.1009 9.8772 23.5098 9.31702 23.1313 8.61819L23.1182 8.59366C22.8447 8.07587 22.6985 7.50036 22.6916 6.91479C22.6848 6.32923 22.8176 5.75047 23.079 5.22644V5.21499C23.3488 4.6769 23.7463 4.21311 24.2368 3.86418L24.2466 3.856C24.8033 3.45971 25.459 3.22585 26.1408 3.18051C26.8226 3.13518 27.5036 3.28015 28.1077 3.59925L28.1323 3.61233C28.8322 3.9894 29.3927 4.58091 29.7317 5.30003L29.7431 5.32456C30.0119 5.90479 30.1249 6.54502 30.071 7.1822C30.0171 7.81938 29.7981 8.43152 29.4357 8.95834V8.96816Z" fill="#F4F4F4"/>
</g>
<defs>
<linearGradient id="paint0_linear_10_9033" x1="13.2324" y1="17.0878" x2="19.4043" y2="17.0878" gradientUnits="userSpaceOnUse">
<stop stop-color="#F4F4F4"/>
<stop offset="1" stop-color="#C6C6C6"/>
</linearGradient>
<clipPath id="clip0_10_9033">
<rect width="32.637" height="32.6354" fill="white" transform="translate(0 0.735718)"/>
</clipPath>
</defs>
</svg>
